<svg width="34" height="34" viewBox="0 0 34 34" fill="none" xmlns="http://www.w3.org/2000/svg">
<path d="M21.409 22.6391L20.6544 23.4352C20.6544 23.4352 18.8582 25.3243 13.9572 20.1645C9.05619 15.0048 10.8524 13.1157 10.8524 13.1157L11.3284 12.6132C12.4993 11.3792 12.6104 9.39893 11.5871 7.95268L9.49736 4.9955C8.23024 3.20427 5.78389 2.96876 4.33266 4.49628L1.73041 7.23453C1.01226 7.99249 0.531283 8.97268 0.589332 10.0623C0.7386 12.8487 1.92943 18.841 8.57024 25.8351C15.6141 33.2488 22.2234 33.544 24.9251 33.277C25.7809 33.194 26.524 32.7313 27.1227 32.1011L29.4778 29.6199C31.07 27.9448 30.6222 25.0755 28.5855 23.9045L25.4177 22.0801C24.0809 21.3122 22.4539 21.5378 21.409 22.6374V22.6391Z" fill="#FFEEEE"/>
<path d="M25.4625 16.7547C27.2658 16.7544 29.02 16.1662 30.459 15.0793C31.8981 13.9925 32.9436 12.4661 33.4372 10.7316C33.9307 8.99705 33.8454 7.14891 33.1941 5.46723C32.5429 3.78555 31.3612 2.362 29.8281 1.41231C28.2951 0.462622 26.4942 0.0385624 24.6985 0.204396C22.9027 0.37023 21.21 1.11692 19.8768 2.3313C18.5436 3.54568 17.6426 5.16157 17.3103 6.93407C16.978 8.70658 17.2326 10.5391 18.0355 12.1539C18.1873 12.4471 18.2268 12.7856 18.1466 13.1059L17.6524 14.9519C17.6034 15.1346 17.6035 15.327 17.6525 15.5098C17.7014 15.6925 17.7977 15.8592 17.9315 15.993C18.0652 16.1268 18.2319 16.223 18.4146 16.272C18.5974 16.321 18.7898 16.321 18.9726 16.2721L20.8185 15.7778C21.1388 15.6976 21.4773 15.7371 21.7705 15.8889C22.9174 16.4599 24.1813 16.7563 25.4625 16.7547Z" fill="#FFEEEE"/>
</svg>
