<svg width="34" height="28" viewBox="0 0 34 28" fill="none" xmlns="http://www.w3.org/2000/svg">
<path d="M30.4369 0.90155H3.90152C2.06063 0.90155 0.601179 2.37758 0.601179 4.21847L0.584595 24.12C0.584595 25.9609 2.06063 27.4369 3.90152 27.4369H30.4369C32.2778 27.4369 33.7538 25.9609 33.7538 24.12V4.21847C33.7538 2.37758 32.2778 0.90155 30.4369 0.90155ZM17.1692 10.8523H10.5354V12.5108H15.5107C16.4229 12.5108 17.1692 13.2571 17.1692 14.1692V19.1446C17.1692 20.0568 16.4229 20.8031 15.5107 20.8031H13.8523V22.4615H10.5354V20.8031H7.21844V17.4862H13.8523V15.8277H8.8769C7.96475 15.8277 7.21844 15.0814 7.21844 14.1692V9.19386C7.21844 8.2817 7.96475 7.5354 8.8769 7.5354H10.5354V5.87694H13.8523V7.5354H17.1692V10.8523ZM23.8031 21.2177L20.4861 17.9008H27.12L23.8031 21.2177ZM20.4861 10.8523L23.8031 7.5354L27.12 10.8523H20.4861Z" fill="#FFEEEE"/>
</svg>
