<svg width="40" height="21" viewBox="0 0 40 21" fill="none" xmlns="http://www.w3.org/2000/svg">
<path d="M38.9456 9.63964C38.6083 8.95201 38.0695 8.36189 37.2512 7.78177C37.0423 7.63387 36.4398 7.20791 25.3957 7.31843V5.01423C25.3957 4.70274 25.32 4.4031 25.184 4.17688C25.0481 3.95065 24.8624 3.81504 24.6649 3.79792C24.4675 3.78079 24.2734 3.88344 24.1226 4.08478C23.9717 4.28613 23.8755 4.57085 23.8538 4.88045L23.7519 7.33781C23.2409 7.34481 22.7102 7.35277 22.1596 7.36169L21.6636 7.36919C19.6192 7.40295 17.1717 7.44421 15.5789 7.47797C17.3153 5.60135 20.7565 1.91937 20.7914 1.88187C20.9098 1.76035 20.9998 1.58136 21.0479 1.37201C21.0959 1.16266 21.0993 0.934361 21.0576 0.721679C21.0159 0.508998 20.9313 0.323524 20.8167 0.193347C20.7021 0.0631688 20.5637 -0.00462097 20.4224 0.000244782C19.3383 0.0402527 11.2084 5.25753 9.5124 6.6478C8.91401 6.97037 8.33546 7.29043 7.79262 7.60049C4.14908 9.67465 1.92296 11.3975 0.988064 12.8665C0.128567 14.2193 0 17.3737 0 19.1328C0 19.8454 0.566649 20.2067 0.99362 20.4168C1.35326 20.5993 1.72547 20.7135 2.10232 20.7568H5.66808C5.60824 20.5958 5.55522 20.4287 5.50935 20.2567C5.46488 20.0937 5.42645 19.9267 5.39428 19.7566C5.31205 19.3191 5.27035 18.8652 5.27047 18.4089C5.27047 15.8684 6.54424 13.8017 8.11007 13.8017C9.67589 13.8017 10.9497 15.8684 10.9497 18.4089C10.9498 18.8652 10.9081 19.3191 10.8259 19.7566C10.7937 19.9267 10.7553 20.0937 10.7108 20.2567C10.6649 20.4287 10.6119 20.5958 10.5521 20.7568H29.3292C29.27 20.5953 29.217 20.4283 29.1705 20.2567C29.1264 20.0935 29.088 19.9265 29.0554 19.7566C28.9732 19.3191 28.9315 18.8652 28.9316 18.4089C28.9316 15.8684 30.2062 13.8017 31.772 13.8017C33.3379 13.8017 34.6116 15.8684 34.6116 18.4089C34.612 19.0142 34.5384 19.6139 34.395 20.1755C34.3494 20.3531 34.2966 20.526 34.237 20.6931C35.4632 20.5718 37.5369 20.283 38.7234 19.8729C39.3829 19.6441 39.8956 18.7764 39.9432 17.81V17.8087C40.1908 12.6565 39.5867 10.9486 38.9456 9.63964ZM3.29514 15.1607C2.79309 16.2602 1.39377 16.3662 0.760849 16.3552C0.888782 15.0917 1.11004 14.1365 1.40305 13.6314C1.85399 13.455 2.44596 13.379 2.88483 13.5242C2.99338 13.5594 3.09464 13.6368 3.17947 13.7491C3.26431 13.8615 3.33005 14.0053 3.37076 14.1677C3.41148 14.3301 3.42588 14.5059 3.41268 14.6793C3.39948 14.8527 3.35908 15.0181 3.29514 15.1607ZM14.6425 7.27843C14.5204 7.41963 14.3812 7.51993 14.2335 7.57313C14.0859 7.62633 13.9329 7.6313 13.7839 7.58774C13.6183 7.53548 13.4483 7.48997 13.2845 7.46046C11.9242 7.21541 11.2433 6.92411 10.7036 6.85659C13.4782 4.8637 19.6907 1.02795 20.4367 1.00044H20.4375C20.443 1.00044 20.4507 1.00044 20.4529 1.00607C20.4578 1.01794 20.4502 1.03795 20.439 1.0492C20.3954 1.09671 16.0217 5.77763 14.6464 7.27418L14.6425 7.27843ZM23.2747 11.725H22.1628C22.0786 11.725 21.9979 11.6724 21.9383 11.5786C21.8788 11.4848 21.8454 11.3576 21.8454 11.225C21.8454 11.0923 21.8788 10.9651 21.9383 10.8713C21.9979 10.7775 22.0786 10.7249 22.1628 10.7249H23.2747C23.3589 10.7249 23.4396 10.7775 23.4991 10.8713C23.5587 10.9651 23.5921 11.0923 23.5921 11.225C23.5921 11.3576 23.5587 11.4848 23.4991 11.5786C23.4396 11.6724 23.3589 11.725 23.2747 11.725ZM25.4579 11.235L24.5 17.5987C24.4833 17.7079 24.4438 17.8051 24.3878 17.8747C24.3318 17.9443 24.2626 17.9823 24.1913 17.9825C24.1664 17.9829 24.1416 17.9783 24.1175 17.9688C24.0357 17.9382 23.9649 17.8577 23.9207 17.7449C23.8765 17.6322 23.8625 17.4964 23.8818 17.3674L24.8405 11.0049C24.8488 10.939 24.8654 10.8763 24.8894 10.8208C24.9134 10.7652 24.9443 10.7178 24.9802 10.6815C25.0161 10.6451 25.0563 10.6205 25.0983 10.6092C25.1404 10.5978 25.1834 10.6 25.225 10.6154C25.2665 10.6309 25.3056 10.6594 25.34 10.6992C25.3743 10.739 25.4033 10.7894 25.425 10.8472C25.4468 10.905 25.4609 10.9692 25.4665 11.0358C25.4722 11.1024 25.4693 11.1702 25.4579 11.235ZM39.2004 13.7542C38.2933 13.7542 37.6385 12.974 37.4004 12.4539C37.2385 12.0989 37.1687 11.3312 37.5298 11.0862C37.9116 10.8263 38.3978 10.8394 38.7342 10.8945C38.9643 11.4766 39.1926 12.314 39.3001 13.7542H39.2004Z" fill="white"/>
</svg>
