<svg width="30" height="30" viewBox="0 0 30 30" fill="none" xmlns="http://www.w3.org/2000/svg">
<g clip-path="url(#clip0_38_304)">
<path d="M5.50778 20.2677C4.78221 21.053 4.70504 22.1621 5.332 22.7928L7.24514 24.7172C7.87087 25.3466 8.97126 25.2691 9.75055 24.5408L10.8558 23.5076L6.53211 19.1584L5.50778 20.2677Z" fill="white"/>
<path d="M6.93036 18.728L11.2844 23.1077L14.0451 20.5272L9.49577 15.9509L6.93036 18.728Z" fill="white"/>
<path d="M13.3144 11.863C13.3985 11.8631 13.4817 11.8466 13.5593 11.8142C13.6369 11.7819 13.7072 11.7344 13.7663 11.6745C13.8867 11.5529 13.9543 11.3887 13.9543 11.2175C13.9543 11.0463 13.8867 10.8821 13.7663 10.7605C13.7071 10.7008 13.6368 10.6534 13.5592 10.621C13.4817 10.5887 13.3985 10.572 13.3145 10.572C13.2304 10.572 13.1472 10.5887 13.0697 10.621C12.9921 10.6534 12.9218 10.7008 12.8626 10.7605C12.7422 10.8821 12.6747 11.0463 12.6747 11.2175C12.6747 11.3887 12.7422 11.5529 12.8626 11.6745C12.9217 11.7344 12.992 11.7818 13.0696 11.8142C13.1471 11.8465 13.2304 11.8631 13.3144 11.863Z" fill="white"/>
<path d="M28.5194 1.3998C28.4644 1.34503 28.3956 1.30611 28.3203 1.28714C28.245 1.26817 28.166 1.26984 28.0916 1.29199L25.8895 1.93283L24.6136 3.21603L23.5888 5.0717C23.552 5.13825 23.4908 5.1879 23.4181 5.21015L22.2869 5.55644L20.0795 7.77714L19.8862 8.89453C19.8744 8.96256 19.839 9.02426 19.7862 9.06872C19.7334 9.11319 19.6665 9.13758 19.5975 9.13757H18.7532L17.0269 10.8741L19.1603 13.0198L20.944 11.2255L21.3659 10.2517C21.3939 10.1869 21.4444 10.1345 21.5081 10.104L22.4386 9.6583V8.94966C22.4386 8.88331 22.4612 8.81893 22.5025 8.76704C22.5439 8.71516 22.6016 8.67886 22.6663 8.66408L23.7327 8.42027L24.9554 7.19039L25.0252 6.32531C25.0304 6.26047 25.0571 6.19922 25.101 6.15121C25.1448 6.10319 25.2034 6.07114 25.2675 6.06011L26.2461 5.89201L28.0317 4.09593L28.6379 1.83474C28.6591 1.75828 28.6592 1.67753 28.6384 1.60099C28.6175 1.52445 28.5764 1.45495 28.5194 1.3998Z" fill="white"/>
<path d="M15.209 9.87702C14.9421 9.6061 14.6239 9.39115 14.2729 9.24473C13.9219 9.09831 13.5453 9.02337 13.165 9.0243C13.1436 9.0243 13.1224 9.0243 13.101 9.02495C12.7098 9.03213 12.3243 9.11946 11.9681 9.28156C11.612 9.44366 11.293 9.67707 11.0306 9.96737L2.21472 19.6319C1.63951 20.2612 1.32875 21.0878 1.34695 21.9402C1.36515 22.7926 1.71091 23.6052 2.31246 24.2093L5.83792 27.7557C6.43431 28.3595 7.24236 28.7075 8.09088 28.7259C8.93941 28.7442 9.76175 28.4315 10.3837 27.854L19.9915 18.9862C20.2797 18.7193 20.5113 18.3972 20.6724 18.039C20.8334 17.6808 20.9208 17.2939 20.9292 16.9012C20.9376 16.5086 20.8668 16.1182 20.7212 15.7535C20.5755 15.3887 20.358 15.057 20.0814 14.7781L15.209 9.87702ZM12.4469 10.3481C12.5605 10.2336 12.6956 10.1427 12.8445 10.0807C12.9933 10.0188 13.153 9.98683 13.3143 9.98683C13.4755 9.98683 13.6352 10.0188 13.784 10.0807C13.9329 10.1427 14.068 10.2336 14.1816 10.3481C14.4108 10.5796 14.5394 10.8923 14.5394 11.2182C14.5394 11.544 14.4108 11.8567 14.1816 12.0883C14.068 12.2027 13.9329 12.2936 13.784 12.3556C13.6352 12.4176 13.4755 12.4495 13.3143 12.4495C13.153 12.4495 12.9933 12.4176 12.8445 12.3556C12.6956 12.2936 12.5605 12.2027 12.4469 12.0883C12.2177 11.8567 12.0892 11.5441 12.0892 11.2183C12.0892 10.8925 12.2177 10.5798 12.4469 10.3482V10.3481ZM16.223 19.2941L10.1507 24.9699C9.61218 25.4733 8.94714 25.7291 8.31433 25.7291C8.03954 25.7333 7.76668 25.6826 7.51174 25.58C7.25681 25.4773 7.02492 25.3248 6.82968 25.1314L4.91654 23.2069C4.06751 22.353 4.13806 20.8877 5.07708 19.8712L10.7197 13.7631C11.1913 13.2526 11.8317 12.9531 12.4767 12.9412C12.7318 12.9322 12.986 12.9754 13.2239 13.0682C13.4617 13.161 13.678 13.3015 13.8595 13.481L16.5036 16.1407C16.682 16.3241 16.8215 16.5416 16.9136 16.7803C17.0057 17.0189 17.0485 17.2738 17.0395 17.5294C17.0272 18.1772 16.7299 18.8203 16.223 19.2941Z" fill="white"/>
<path d="M13.4438 13.8936C13.3212 13.7738 13.176 13.6796 13.0166 13.6165C12.8572 13.5535 12.6868 13.5228 12.5154 13.5263C12.5061 13.5263 12.4967 13.5263 12.4873 13.5263C12.001 13.5352 11.5138 13.7661 11.15 14.1599L9.89355 15.5204L14.4732 20.1271L15.823 18.8656C16.2147 18.4994 16.4446 18.0083 16.4536 17.5184C16.4608 17.3412 16.4322 17.1643 16.3694 16.9985C16.3065 16.8327 16.2108 16.6812 16.088 16.5533L13.4438 13.8936Z" fill="white"/>
</g>
<defs>
<clipPath id="clip0_38_304">
<rect width="30" height="30" fill="white"/>
</clipPath>
</defs>
</svg>
