<svg width="26" height="26" viewBox="0 0 26 26" fill="none" xmlns="http://www.w3.org/2000/svg">
<g clip-path="url(#clip0_38_314)">
<path d="M10.6528 14.5661C10.6528 14.454 10.7438 14.363 10.8559 14.363H15.1797C15.2918 14.363 15.3828 14.454 15.3828 14.5661C15.3828 14.6782 15.2918 14.7692 15.1797 14.7692H10.8559C10.7438 14.7692 10.6528 14.6782 10.6528 14.5661ZM14.747 15.3693H11.2882C11.1761 15.3693 11.0851 15.4602 11.0851 15.5724C11.0851 15.6845 11.1761 15.7755 11.2882 15.7755H14.747C14.8591 15.7755 14.9501 15.6845 14.9501 15.5724C14.9501 15.4602 14.8591 15.3693 14.747 15.3693ZM25.6114 13C25.6114 19.944 19.962 25.5938 13.0176 25.5938C6.07317 25.5938 0.423854 19.944 0.423854 13C0.423854 12.7758 0.605447 12.5938 0.830104 12.5938H3.39029C3.44879 12.4715 3.54385 12.3642 3.67304 12.2952L4.25195 11.986L3.42563 11.2292C3.2741 11.0906 3.21317 10.8826 3.26557 10.6868C3.3196 10.4861 3.4821 10.3334 3.6901 10.2883L6.1922 9.74228L7.15257 8.08356C7.42232 7.61719 7.91226 7.31209 8.46273 7.26822L11.4751 7.02731C12.4988 6.94525 13.5356 6.94525 14.5593 7.02731L17.5717 7.26822C18.1217 7.31209 18.6121 7.61678 18.8818 8.08356L19.8422 9.74228L22.3443 10.2883C22.5523 10.3334 22.7148 10.4861 22.7688 10.6868C22.8216 10.8826 22.7603 11.0906 22.6088 11.2292L21.7824 11.986L22.3614 12.2952C22.5937 12.4195 22.729 12.6596 22.7063 12.9066L22.3317 16.9077C22.3037 17.2096 22.0355 17.4367 21.7085 17.4367H21.3892L21.1889 18.0127C21.0427 18.434 20.6356 18.7167 20.1765 18.7167H17.0996C16.6397 18.7167 16.2331 18.4336 16.0872 18.0127L15.8869 17.4367H10.1474L9.94717 18.0127C9.80132 18.4336 9.39467 18.7167 8.93479 18.7167H5.85785C5.39879 18.7167 4.99173 18.434 4.84548 18.0127L4.6452 17.4367H4.32588C3.99885 17.4367 3.73073 17.2092 3.7027 16.9077L3.37485 13.4062H1.24326C1.45817 19.7149 6.65735 24.7812 13.0176 24.7812C19.5135 24.7812 24.7989 19.4963 24.7989 13C24.7989 6.50366 19.5135 1.21875 13.0176 1.21875C10.4757 1.21875 8.0711 2.01744 6.03985 3.51853L6.73129 4.20997C6.89257 4.37084 6.90882 4.62841 6.76867 4.80878L5.06729 6.99644C4.98767 7.09881 4.86742 7.16219 4.73742 7.17031C4.72807 7.17072 4.71832 7.17113 4.70938 7.17113C4.61717 7.17113 4.53226 7.13578 4.4567 7.08378L3.15263 8.38784C3.03767 8.50281 2.88451 8.56619 2.7216 8.56619C2.5587 8.56619 2.40595 8.50281 2.29098 8.38744C2.17601 8.27247 2.11263 8.11931 2.11263 7.95681C2.11263 7.79431 2.17601 7.64075 2.29098 7.52578L3.58367 6.23309L2.72201 5.37144L1.42932 6.66412C1.3107 6.78275 1.15429 6.84206 0.998291 6.84206C0.842291 6.84206 0.685885 6.78275 0.56726 6.66412C0.452291 6.54916 0.388916 6.396 0.388916 6.23309C0.388916 6.07019 0.452291 5.91703 0.56726 5.80206L1.87213 4.49719C1.81526 4.41431 1.77829 4.31925 1.78479 4.21728C1.79292 4.08769 1.85629 3.96744 1.95907 3.88781L4.14673 2.18644C4.3267 2.04669 4.58385 2.06212 4.74554 2.22381L5.4577 2.93597C7.65023 1.28375 10.2592 0.40625 13.0176 0.40625C19.962 0.40625 25.6114 6.05597 25.6114 13ZM7.8562 8.49022L6.33032 11.126L12.1848 11.7869C12.7369 11.8495 13.2971 11.8495 13.8504 11.7869L19.7049 11.126L18.179 8.49022C18.0425 8.25459 17.7914 8.10022 17.5071 8.07747L14.4947 7.83656C13.5149 7.75856 12.5208 7.75856 11.5409 7.83656L8.52854 8.07747C8.24417 8.10022 7.9931 8.25459 7.8566 8.49022H7.8562ZM10.0479 14.5986L10.5781 15.858C10.6585 16.0493 10.8889 16.1789 11.1484 16.1789H14.8876C15.1472 16.1789 15.3771 16.0493 15.4579 15.858L15.9881 14.5986C16.1149 14.298 15.8256 13.9888 15.4177 13.9888H10.6183C10.2104 13.9888 9.92157 14.298 10.0479 14.5986ZM17.2568 15.1543L17.5119 15.8897C17.5822 16.0916 17.776 16.2268 17.9946 16.2268H20.5499C20.7908 16.2268 21.0004 16.0595 21.0488 15.8291L21.34 14.4324C21.3738 14.2708 21.3234 14.1038 21.2048 13.986C21.0813 13.8625 20.9041 13.8109 20.7323 13.8483L17.6306 14.5096C17.4868 14.5401 17.3641 14.6299 17.293 14.7558C17.2247 14.8773 17.2117 15.0227 17.2572 15.1539L17.2568 15.1543ZM4.83126 13.9864C4.71264 14.1042 4.66226 14.2708 4.69598 14.4324L4.98726 15.8295C5.0352 16.0599 5.24523 16.2273 5.48613 16.2273H8.04145C8.2596 16.2273 8.45379 16.092 8.52407 15.8901L8.77879 15.1548C8.8247 15.0231 8.8117 14.8777 8.74345 14.7562C8.67235 14.6303 8.54926 14.5405 8.40585 14.51L5.30373 13.8483C5.13148 13.8121 4.95476 13.8629 4.83126 13.9864Z" fill="white"/>
</g>
<defs>
<clipPath id="clip0_38_314">
<rect width="26" height="26" fill="white"/>
</clipPath>
</defs>
</svg>
